# xmcd
#
# Track frame offsets:
#	150
#	15796
#	27863
#	48123
#	63617
#	82120
#	98070
#	111582
#	122349
#	139818
#	147228
#	162042
#	175655
#	186967
#
# Disc length: 2737 seconds
#
# Revision: 1
# Processed by: cddbd v1.5.2PL0 Copyright (c) Steve Scherf et al.
# Submitted via: audiograbber 1.83.01
#
DISCID=b20aaf0e
DTITLE=Larry Sparks - The Best of Larry Sparks
DYEAR=2008
DGENRE=Bluegrass
TTITLE0=Tennessee 1949
TTITLE1=Colleen Malone
TTITLE2=John Deere Tractor
TTITLE3=A Face in the Crowd
TTITLE4=I'd Like To Be a Train
TTITLE5=Smokey Mountain Memories
TTITLE6=You Ain't Lived
TTITLE7=Blue Ridge Cabin Home
TTITLE8=You Could Have Called
TTITLE9=I'm Bound to Ride
TTITLE10=Don't Neglect the Rose
TTITLE11=Imitation of the Blues
TTITLE12=Just Lovin' You
TTITLE13=Blue Virginia Blues
EXTD=
EXTT0=
EXTT1=
EXTT2=
EXTT3=
EXTT4=
EXTT5=
EXTT6=
EXTT7=
EXTT8=
EXTT9=
EXTT10=
EXTT11=
EXTT12=
EXTT13=
PLAYORDER=
